<svg xmlns="http://www.w3.org/2000/svg" width="41" height="29" viewBox="0 0 41 29"><defs><style>.a{fill:#ffc220;}.b,.d{fill:none;}.b{stroke:#ffc220;stroke-linejoin:round;stroke-width:3px;}.c{stroke:none;}</style></defs><g transform="translate(-1042 -347)"><path class="a" d="M32.192,8.836a2.844,2.844,0,0,1-2.836,2.836,2.41,2.41,0,0,1-.723-.1l-5.047,5.033a2.5,2.5,0,0,1,.1.737,2.836,2.836,0,1,1-5.671,0,2.5,2.5,0,0,1,.1-.737L14.5,12.99a2.788,2.788,0,0,1-1.475,0L6.572,19.455a2.41,2.41,0,0,1,.1.723,2.836,2.836,0,1,1-2.836-2.836,2.41,2.41,0,0,1,.723.1l6.465-6.451a2.5,2.5,0,0,1-.1-.737,2.836,2.836,0,1,1,5.671,0,2.5,2.5,0,0,1-.1.737l3.615,3.615a2.788,2.788,0,0,1,1.475,0L26.62,9.559a2.41,2.41,0,0,1-.1-.723,2.836,2.836,0,1,1,5.671,0Z" transform="translate(1046 346.593)"/><g class="b" transform="translate(1042 347)"><rect class="c" width="41" height="29"/><rect class="d" x="1.5" y="1.5" width="38" height="26"/></g></g></svg>