<svg xmlns="http://www.w3.org/2000/svg" width="38.02" height="34.218" viewBox="0 0 38.02 34.218"><defs><style>.a{fill:#ffc220;}</style></defs><g transform="translate(-52 -136.285)"><path class="a" d="M21.01,10.6V3H2V37.218H40.02V10.6ZM9.6,33.416H5.8v-3.8H9.6Zm0-7.6H5.8v-3.8H9.6Zm0-7.6H5.8v-3.8H9.6Zm0-7.6H5.8V6.8H9.6Zm7.6,22.812h-3.8v-3.8h3.8Zm0-7.6h-3.8v-3.8h3.8Zm0-7.6h-3.8v-3.8h3.8Zm0-7.6h-3.8V6.8h3.8Zm19.01,22.812H21.01v-3.8h3.8v-3.8h-3.8v-3.8h3.8v-3.8h-3.8v-3.8H36.218Zm-3.8-15.208h-3.8v3.8h3.8Zm0,7.6h-3.8v3.8h3.8Z" transform="translate(50 133.285)"/></g></svg>